inDegrees=no
num_controls=7
num_derivatives=13
num_iterations=112
num_multipliers=7
num_parameters=0
num_slacks=7
num_states=26
objective=0.434950
objective_accelerations=0.057427
objective_balance=0.006647
objective_effort=0.037756
objective_height=0.329406
objective_ligament=0.003714
solver_duration=1656.686921
status=Solve_Succeeded
success=true
DataType=double
version=3
OpenSimVersion=4.5
endheader
time	/jointset/ground_pelvis/pelvis_tilt/value	/jointset/ground_pelvis/pelvis_tx/value	/jointset/ground_pelvis/pelvis_ty/value	/jointset/hip_l/hip_flexion_l/value	/jointset/hip_l/hip_adduction_l/value	/jointset/hip_l/hip_rotation_l/value	/jointset/back/lumbar_extension/value	/jointset/patellofemoral_l/patellar_flexion_l/value	/jointset/knee_l/knee_flexion_l/value	/jointset/knee_l/knee_adduction_l/value	/jointset/knee_l/knee_rotation_l/value	/jointset/ankle_l/ankle_angle_l/value	/jointset/subtalar_l/subtalar_angle_l/value	/jointset/ground_pelvis/pelvis_tilt/speed	/jointset/ground_pelvis/pelvis_tx/speed	/jointset/ground_pelvis/pelvis_ty/speed	/jointset/hip_l/hip_flexion_l/speed	/jointset/hip_l/hip_adduction_l/speed	/jointset/hip_l/hip_rotation_l/speed	/jointset/back/lumbar_extension/speed	/jointset/patellofemoral_l/patellar_flexion_l/speed	/jointset/knee_l/knee_flexion_l/speed	/jointset/knee_l/knee_adduction_l/speed	/jointset/knee_l/knee_rotation_l/speed	/jointset/ankle_l/ankle_angle_l/speed	/jointset/subtalar_l/subtalar_angle_l/speed	/forceset/tau_hip_flexion_l	/forceset/tau_hip_adduction_l	/forceset/tau_hip_rotation_l	/forceset/tau_knee_flexion_l	/forceset/tau_ankle_angle_l	/forceset/tau_subtalar_angle_l	/forceset/tau_lumbar_extension	lambda_cid13_p0	lambda_cid13_p1	lambda_cid13_p2	lambda_cid13_p3	lambda_cid13_p4	lambda_cid13_p5	lambda_cid14_p0	/jointset/ground_pelvis/pelvis_tilt/accel	/jointset/ground_pelvis/pelvis_tx/accel	/jointset/ground_pelvis/pelvis_ty/accel	/jointset/hip_l/hip_flexion_l/accel	/jointset/hip_l/hip_adduction_l/accel	/jointset/hip_l/hip_rotation_l/accel	/jointset/back/lumbar_extension/accel	/jointset/patellofemoral_l/patellar_flexion_l/accel	/jointset/knee_l/knee_flexion_l/accel	/jointset/knee_l/knee_adduction_l/accel	/jointset/knee_l/knee_rotation_l/accel	/jointset/ankle_l/ankle_angle_l/accel	/jointset/subtalar_l/subtalar_angle_l/accel	gamma_cid13_p0	gamma_cid13_p1	gamma_cid13_p2	gamma_cid13_p3	gamma_cid13_p4	gamma_cid13_p5	gamma_cid14_p0
1	-0.5557010514745535	-0.09207352915170654	0.5155546401015001	2.094393556159182	-0.2532272799021748	0.2778319107534743	-0.436301093523872	1.560860859926393	1.560860859926539	-0.1727476577452692	0.1745124690198642	0.2421886384994542	0.05250912597059285	-0.01042998040740054	0.0008565759509114712	-0.003480470038373466	0.01663921183204133	0.001178721297919646	0.003170497709425193	0.0001886394346892247	0.007859687971634324	0.007859687971634065	0.000113369882880644	-3.055644684275642e-05	0.002064630280014909	0.001979447765982511	-0.3993546494688799	-0.01905148126887087	-0.004429966155919717	-0.3538588141079744	0.09292680796283617	0.003375956038807102	0.3338986764163457	-18.47070531985557	3.585130846203255	-3.049691387450861	18.14039934120709	-746.4345990281083	-54.56268396282481	-0.03651655598580347	0.9987871816407631	-0.09247311783941545	2.118861636730407	-6.537782062846632	-0.9155977617546288	-2.369411989050748	0.001804257810273954	-5.943012607340501	-5.943012607339389	-0.1314993643399134	0.02479324660725575	-0.6793733549798616	-1.272881397201946	9.442360567446206e-10	2.007602473626228e-09	-7.995964369961071e-09	-2.993131054973564e-09	2.139075785548861e-09	-6.509739064290968e-09	1.43957759186535e-09
1.01	-0.5557556068062857	-0.09206953296083892	0.5156257598390203	2.094233192854228	-0.2532603645463598	0.2777430102858924	-0.4362987848443131	1.560642503518231	1.56064250351834	-0.1727498092619992	0.1745122086052047	0.2421757353719561	0.05246657349548296	-0.0004579866429352818	-4.823331523701506e-05	0.01770794113177677	-0.04874319243030466	-0.007791958876168293	-0.02094708207154411	0.0002599816450195553	-0.05152673746575315	-0.0515267374657536	-0.0005431086790096107	-2.016628787516225e-05	-0.004632940379654897	-0.01048103271277217	-0.3993672495756295	-0.01905592638923833	-0.004458998122217559	-0.3539241158910087	0.09326714980856195	0.003387449567290257	0.3339546057949164	-18.35799503601193	3.559916007192477	-3.045113589944078	17.91959402338907	-746.5049254664733	-54.5890539444081	-0.03652444276772553	0.9998709181372558	-0.08811678544575462	2.119357295330373	-6.543167284678414	-0.8872560532787134	-2.432411683367363	0.00783197772639798	-5.935820625974103	-5.935820625974757	-0.03264276592061895	-0.01064687260209773	-0.6631004685694828	-1.231301116649438	-2.226911299602425e-09	1.834070308900934e-09	4.920248694786851e-08	1.173242828419689e-08	-1.037476101926138e-08	7.231725605331887e-08	-1.020854918009326e-08
1.02	-0.5557097491115169	-0.09207431125352139	0.5159088689758763	2.093418065971298	-0.2533830465738945	0.277413037878352	-0.4362961561876296	1.559830410232889	1.559830410232961	-0.1727585096971084	0.1745120903375068	0.2420962262284394	0.05229968226689807	0.009652624893043875	-0.0008983207591079401	0.03891740982883662	-0.1143135037626431	-0.01674075537196931	-0.04504389028240772	0.0002526348586292083	-0.1108876874645901	-0.1108876874645939	-0.001196413793181073	-2.127054652130518e-06	-0.01125657292368267	-0.02288830292901529	-0.3993798496823783	-0.01906037150960596	-0.004488030088521925	-0.3539894176740438	0.09360749165428711	0.003398943095773072	0.3340105351734881	-18.24904675866655	3.536190245142864	-3.041721561557385	17.7359676401379	-746.6237157623817	-54.54425104896696	-0.03652286487157041	1.026510735943535	-0.08152875338390314	2.123073142112329	-6.575363476845103	-0.9112210260972426	-2.365257675029607	-0.01393354153387371	-5.937917519630401	-5.937917519629909	-0.1308646747961531	0.02632306145834039	-0.6645857318514555	-1.262239344699632	-2.968673966308152e-09	-9.460240009307705e-10	1.079294720934232e-07	1.964577750745084e-08	-2.229914837153945e-08	1.464233463407679e-07	-2.227005264434848e-08
1.03	-0.5555620523708115	-0.09208727610268398	0.5164041273885908	2.091946397405338	-0.253595002023782	0.2768422785960108	-0.4362938937040787	1.558424860684489	1.55842486068449	-0.1727737078071007	0.1745121806926299	0.2419507141314319	0.05200909659408987	0.0199151828887692	-0.001681386084198187	0.06013295327282183	-0.180043197964542	-0.02563617214955181	-0.06909715361640069	0.0001952971385512044	-0.1702154885883723	-0.1702154885883813	-0.001840339465760431	2.058398841684977e-05	-0.01784681572649374	-0.0352086923218188	-0.3992797361799283	-0.01900168552597582	-0.004583921518935287	-0.3539289145568535	0.09400102289514266	0.003517149744771715	0.3340277901214659	-18.10511969920575	3.450573739694303	-3.017701862645308	17.47917967753002	-746.5870385222692	-54.55572958608365	-0.03655518045459834	1.030398832578288	-0.07470042822363275	2.120590113617407	-6.575219997761721	-0.8766011400007578	-2.423762323098309	-0.002318594209013249	-5.929194424410017	-5.929194424411181	-0.0307439095093041	-0.009739462819419299	-0.6563846711219539	-1.213937520251339	-3.685646993323647e-09	-3.752715883671739e-09	1.666720545229342e-07	2.748961438258314e-08	-3.421752093348555e-08	2.204812641299499e-07	-3.433577423811693e-08
1.04	-0.5553108759499114	-0.09210767260632785	0.5171115002693603	2.089816742376181	-0.2538954914687278	0.2760313063482275	-0.4362923415391189	1.55642623652172	1.55642623652165	-0.172795262653022	0.1745125012404749	0.2417392713830711	0.05159590727061749	0.03034856093214477	-0.002384651655365758	0.08134030343982734	-0.2459107964024175	-0.0344475543836142	-0.09308648337096097	0.0001105711399033429	-0.2295026103384703	-0.2295026103384902	-0.002467760979158584	4.391148946185033e-05	-0.02444270319434589	-0.04740903306184751	-0.399179622677474	-0.01894299954234542	-0.004679812949354232	-0.3538684114396646	0.09439455413599708	0.003635356393770425	0.3340450450694486	-17.96504593173894	3.366420610048185	-2.994816229704071	17.25882650889691	-746.5998276315712	-54.4968931031157	-0.03657787363001446	1.060674745473578	-0.06556880259936647	2.121434486716392	-6.602944324040406	-0.8944141173932219	-2.352470959143071	-0.01941119724783722	-5.929781644893571	-5.929781644894228	-0.1275638429599104	0.02644635305354331	-0.6657146648596697	-1.23822961414467	-4.069271222519622e-09	-6.479093624418865e-09	2.249851022903675e-07	3.398133892870895e-08	-4.569698399681146e-08	2.928464675774442e-07	-4.629329992917394e-08
1.05	-0.5549544980108342	-0.09213466920012219	0.5180308195870144	2.087027942863706	-0.2542835672637923	0.2749808630839292	-0.4362917489635683	1.553835050727171	1.553835050727181	-0.1728229931592138	0.1745130692292728	0.2414616938050564	0.0510614238989864	0.04095755180390236	-0.002998051527412988	0.1025138591642264	-0.3118514938287621	-0.04314242224845137	-0.1169826000926197	4.941874404651596e-06	-0.2887176619389566	-0.2887176619389419	-0.00307219785488922	6.986577354077014e-05	-0.0310880685628191	-0.05945601378842509	-0.3987773632105389	-0.01883250205118676	-0.004841108054978456	-0.3536919509211843	0.09492760055826034	0.003855106075719482	0.3338683397377073	-17.75301708858538	3.216481762595464	-2.951063382540548	16.94355064513512	-746.3021770623028	-54.49823407078235	-0.036634965303099	1.065592428668963	-0.0567250917764509	2.113849427922273	-6.589989621726302	-0.8532860389876213	-2.405286458670302	-0.006589105564944568	-5.914822152516888	-5.914822152511323	-0.02599192655139432	-0.009374922584406304	-0.6662283715797248	-1.183221221324799	-4.442478301783739e-09	-9.202961548228685e-09	2.832847270996109e-07	4.043080996455332e-08	-5.716273113830549e-08	3.651587737017607e-07	-5.824744449827122e-08
1.06	-0.5544911139289116	-0.09216729969509077	0.5191615811244367	2.083579664943009	-0.254757844321097	0.2736920377664163	-0.4362923027435422	1.550652223369638	1.55065222336973	-0.1728565896974964	0.1745138877831809	0.2411172063936093	0.05040741293620742	0.05174978950134428	-0.003511431890218853	0.1236287473934394	-0.3778064780468987	-0.05168780683163453	-0.1407628940140004	-0.0001186999656563296	-0.3478309229350716	-0.3478309229350213	-0.00364096739748979	9.402451084076129e-05	-0.03782466988083543	-0.0713145512914226	-0.398375103743599	-0.01872200456002805	-0.005002403160605738	-0.3535154904027054	0.09546064698052235	0.004074855757668294	0.3336916344059715	-17.54511486957681	3.067980523744069	-2.908356417237484	16.6646184491302	-746.0563437672704	-54.43130547995761	-0.03668238873421246	1.097324110610433	-0.04556490075109002	2.109700987679193	-6.605801682398769	-0.8645174610624216	-2.329306399087473	-0.02301371216027474	-5.909423524019269	-5.909423524019769	-0.1204303763338963	0.02608724369776143	-0.6839618547682825	-1.200540969428657	-5.41214666931374e-09	-1.180604946078472e-08	3.396186063035189e-07	4.766435451751945e-08	-6.830634179483728e-08	4.326239219862752e-07	-6.957006203450119e-08
1.07	-0.5539188476357303	-0.09220452901535821	0.5205031282403106	2.079471913563732	-0.2553167234329088	0.2721661005684782	-0.4362941814704459	1.546878847326889	1.546878847326801	-0.1728956981773951	0.1745149410807981	0.2407047625261018	0.04963586754862478	0.06273848857138965	-0.003914423921982576	0.1446642224157592	-0.4437327304866337	-0.06005187521287213	-0.1643964988242558	-0.0002603027749275108	-0.4068207876632532	-0.4068207876632792	-0.00417183392049682	0.0001145917473823619	-0.04469223242815658	-0.08295104109923168	-0.3977096172817283	-0.01854004992294537	-0.005228627053511629	-0.3532321849811694	0.09612531297363269	0.004382203447431889	0.3333518401876426	-17.27153195301556	2.861936234081252	-2.847338782755453	16.29690207657226	-745.5441913063798	-54.41264609302123	-0.03676398510835308	1.104898976447993	-0.03465402737849153	2.097986710759828	-6.584375668564931	-0.8169868309006114	-2.376236003469636	-0.01022216928867616	-5.890226923014536	-5.890226923025773	-0.01812133120928036	-0.01036494138916291	-0.6923622712550646	-1.138726122781073	-6.413541701113206e-09	-1.440271290465705e-08	3.958479245709728e-07	5.493960510863037e-08	-7.943281753195618e-08	4.998312427261193e-07	-8.085908770728079e-08
